<?xml version="1.0" encoding="UTF-8" standalone="no"?>
<!-- Created with Inkscape (http://www.inkscape.org/) -->

<svg
   width="127.99999"
   height="127.99999"
   viewBox="0 0 33.866664 33.866664"
   version="1.1"
   id="svg4843"
   xml:space="preserve"
   xmlns:inkscape="http://www.inkscape.org/namespaces/inkscape"
   xmlns:sodipodi="http://sodipodi.sourceforge.net/DTD/sodipodi-0.dtd"
   xmlns="http://www.w3.org/2000/svg"
   xmlns:svg="http://www.w3.org/2000/svg"><sodipodi:namedview
     id="namedview4845"
     pagecolor="#ffffff"
     bordercolor="#000000"
     borderopacity="0.25"
     inkscape:showpageshadow="2"
     inkscape:pageopacity="0.0"
     inkscape:pagecheckerboard="0"
     inkscape:deskcolor="#d1d1d1"
     inkscape:document-units="mm"
     showgrid="false" /><defs
     id="defs4840" /><g
     inkscape:label="Layer 1"
     inkscape:groupmode="layer"
     id="layer1"><path
       style="fill:#000000;stroke-width:0.0607203"
       d="m 5.1725863,33.796319 c -0.748037,-0.23483 -1.281524,-0.86961 -1.413285,-1.68164 -0.08023,-0.49435 -0.08619,-29.4195067 -0.0064,-30.1791437 0.03387,-0.321732 0.105697,-0.62396 0.185385,-0.780221 0.197239,-0.38664697 0.581651,-0.76793997 0.962988,-0.95520497 l 0.342554,-0.168215 8.5900947,-0.01592 8.590096,-0.01592000399 3.87332,3.87192397399 3.873323,3.871935 -4.57e-4,12.2898757 -4.61e-4,12.28986 -0.146507,0.32004 c -0.199067,0.43485 -0.586659,0.83889 -0.998886,1.04132 l -0.342577,0.16825 -11.627925,0.0108 c -9.4459707,0.009 -11.6755027,-0.004 -11.8814797,-0.068 z m 23.3949457,-1.22214 c 0.09225,-0.0688 0.224027,-0.20063 0.292877,-0.29288 l 0.125171,-0.16771 0.01558,-11.7427 0.01558,-11.7426747 -2.899849,-0.01727 c -2.522089,-0.01524 -2.933899,-0.03048 -3.161225,-0.11772 -0.383539,-0.147184 -0.734284,-0.409643 -0.961393,-0.71942 -0.387234,-0.528183 -0.386221,-0.518673 -0.387244,-3.638852 -4.84e-4,-1.555321 -0.02303,-2.862403 -0.04965,-2.904641 -0.03898,-0.06137 -1.650151,-0.07359 -8.040063,-0.06069 -7.9640147,0.01592 -7.9918907,0.01659 -8.1589877,0.141257 -0.09222,0.06882 -0.223993,0.200659 -0.292878,0.292878 l -0.125171,0.167673 -0.01761,15.0389797 c -0.01219,10.30051 0.0022,15.1081 0.04548,15.25835 0.07755,0.2689 0.321291,0.52226 0.573164,0.59575 0.110201,0.0322 4.8967017,0.0508 11.5235677,0.0449 l 11.335057,-0.009 z M 10.31878,24.436009 c -0.153958,-0.12954 -0.186673,-0.20167 -0.185894,-0.40986 0.0011,-0.28471 0.02777,-0.33843 0.240283,-0.48388 0.138718,-0.0949 0.642577,-0.10275 6.624817,-0.10275 h 6.47469 l 0.160663,0.14887 c 0.240723,0.22312 0.237438,0.5785 -0.0078,0.8378 l -0.157886,0.167 H 16.98661 10.505563 Z m 0.02912,-3.68254 c -0.3480527,-0.30429 -0.28834,-0.82157 0.114232,-0.98979 0.181863,-0.076 1.120156,-0.0888 6.50099,-0.0888 6.729797,0 6.604914,-0.006 6.765418,0.29447 0.123105,0.23006 0.07999,0.58166 -0.09107,0.74237 l -0.156667,0.14722 -6.487861,0.0159 -6.487857,0.0159 z m 0.100719,-3.6596 c -0.390969,-0.16988 -0.4560907,-0.69109 -0.121513,-0.9726 l 0.180576,-0.15192 6.49671,0.0159 6.496714,0.0159 0.14654,0.17035 c 0.158733,0.18457 0.194936,0.50619 0.08091,0.71921 -0.160629,0.30013 -0.03353,0.29464 -6.778645,0.2921 -5.323509,-0.002 -6.332661,-0.0159 -6.501289,-0.0891 z m -0.15941,-3.849815 c -0.243839,-0.254507 -0.235813,-0.57947 0.01998,-0.808005 l 0.189179,-0.169061 h 6.467883 c 7.187482,0 6.703262,-0.02879 6.823156,0.405457 0.06929,0.250951 0.03827,0.358738 -0.167301,0.581241 l -0.154262,0.166996 h -6.504702 -6.504706 z m 15.17451,-8.5066447 -2.67143,-2.671972 -0.01592,2.316597 c -0.01761,2.589148 -0.01456,2.610755 0.40439,2.889927 0.205502,0.136888 0.21556,0.13743 2.580353,0.13743 h 2.374024 z"
       id="path6428"
       inkscape:export-filename="file.png"
       inkscape:export-xdpi="96"
       inkscape:export-ydpi="96" /></g></svg>
